<svg width="18" height="20" fill="none" xmlns="http://www.w3.org/2000/svg"><path fill-rule="evenodd" clip-rule="evenodd" d="M9 0a4.797 4.797 0 0 0-4.792 4.792A4.797 4.797 0 0 0 9 9.583a4.797 4.797 0 0 0 4.792-4.791A4.797 4.797 0 0 0 9 0ZM5.276 4.792A3.728 3.728 0 0 1 9 1.067a3.728 3.728 0 0 1 3.725 3.725A3.728 3.728 0 0 1 9 8.516a3.728 3.728 0 0 1-3.724-3.724Zm-.312 6.874c-2.37 0-4.297 1.98-4.297 4.41v3.412c0 .282.223.512.498.512h15.67c.275 0 .498-.23.498-.512v-3.411c0-2.432-1.928-4.41-4.297-4.41H4.964Zm-3.3 4.41c0-1.867 1.48-3.386 3.3-3.386h8.072c1.82 0 3.3 1.52 3.3 3.387v2.9H1.664v-2.9Z" fill="#FF7010"/></svg>