<svg width="20" height="20" xmlns="http://www.w3.org/2000/svg">

 <g>
  <title>background</title>
  <rect fill="none" id="canvas_background" height="22" width="22" y="-1" x="-1"/>
 </g>
 <g>
  <title>Layer 1</title>
  <path stroke="null" id="svg_1" fill="#FF7010" d="m9.51463,19.627989c0.10819,0.163 0.29034,0.2609 0.48537,0.2609c0.19503,0 0.37718,-0.0979 0.48537,-0.2609c1.38052,-2.08 3.41393,-4.6488 4.83083,-7.2613c1.133,-2.0889 1.6838,-3.87053 1.6838,-5.44655c0,-3.87703 -3.1402,-7.03125 -7,-7.03125c-3.8598,0 -7,3.15422 -7,7.03125c0,1.57602 0.55078,3.35765 1.68377,5.44655c1.41591,2.6105 3.45318,5.1856 4.83086,7.2613zm0.48537,-18.56722c3.2165,0 5.8333,2.62851 5.8333,5.85937c0,1.37516 -0.5042,2.97335 -1.5416,4.88585c-1.2213,2.252 -2.96427,4.5363 -4.2917,6.4567c-1.32724,-1.9201 -3.07028,-4.2046 -4.29174,-6.4567c-1.03732,-1.9125 -1.54159,-3.51069 -1.54159,-4.88585c0,-3.23086 2.61683,-5.85937 5.83333,-5.85937z"/>
  <path id="svg_2" fill="#FF7010" d="m10,10.594519c1.9299,0 3.5,-1.57713 3.5,-3.51565c0,-1.93852 -1.5701,-3.51563 -3.5,-3.51563c-1.9299,0 -3.5,1.57711 -3.5,3.51563c0,1.93852 1.5701,3.51565 3.5,3.51565zm0,-5.8594c1.2866,0 2.33333,1.05141 2.33333,2.34375c0,1.29234 -1.04673,2.34375 -2.33333,2.34375c-1.2866,0 -2.33333,-1.05141 -2.33333,-2.34375c0,-1.29234 1.04673,-2.34375 2.33333,-2.34375z"/>
 </g>
</svg>